<?xml version="1.0" encoding="UTF-8"?>
<svg version="1.1" xmlns="http://www.w3.org/2000/svg" width="218" height="266">
<path d="M0 0 C71.94 0 143.88 0 218 0 C218 87.78 218 175.56 218 266 C146.06 266 74.12 266 0 266 C0 178.22 0 90.44 0 0 Z " fill="transparent" transform="translate(0,0)"/>
<path d="M0 0 C16.61908494 14.58563195 28.62115894 34.1203226 30.13720703 56.59667969 C31.80920292 88.67941248 17.00038885 114.49118939 0 140.5625 C-0.38671875 141.1615918 -0.7734375 141.76068359 -1.171875 142.37792969 C-5.24989815 148.66615008 -5.24989815 148.66615008 -7 150.5625 C-7.99 150.5625 -8.98 150.5625 -10 150.5625 C-11.91015625 148.54296875 -11.91015625 148.54296875 -14.0625 145.75 C-17.25290502 141.71157808 -20.50207015 137.84419327 -24 134.0625 C-28.16361198 129.53683481 -32.09233412 124.87059671 -35.94921875 120.08203125 C-37.77356674 117.84068943 -39.64872055 115.66476692 -41.5625 113.5 C-44 110.5625 -44 110.5625 -44 108.5625 C-43.3709375 108.34335938 -42.741875 108.12421875 -42.09375 107.8984375 C-35.89068863 105.60031537 -31.0049695 102.87784948 -26 98.5625 C-25.39285156 98.06105469 -24.78570312 97.55960937 -24.16015625 97.04296875 C-16.13059342 89.82163325 -11.64912708 79.2404562 -10.75 68.60546875 C-10.29863474 56.71481519 -13.62472727 46.86724506 -21 37.5625 C-21.45503906 36.95921875 -21.91007812 36.3559375 -22.37890625 35.734375 C-29.69035529 27.2584393 -42.05473897 22.19937375 -52.97265625 21.32421875 C-66.3433645 21.0030513 -77.00104343 24.55028257 -87 33.5625 C-96.67891032 43.96732859 -99.71521671 56.09153197 -99.375 69.97265625 C-98.67487406 82.05733002 -92.34241816 91.6928704 -83.75 99.8125 C-78.60670923 104.0089577 -72.24868557 106.47960481 -66 108.5625 C-67.50006391 112.01029086 -69.50409262 114.38610533 -72.0625 117.125 C-75.27291085 120.62168953 -78.34456239 124.17049393 -81.3125 127.875 C-88.05283059 136.20268437 -95.38484734 144.03072493 -103 151.5625 C-146.79300489 86.90885341 -146.79300489 86.90885341 -139.875 47.4375 C-135.72329714 26.33708075 -122.73338816 8.03403989 -105.3515625 -4.33984375 C-72.43899791 -24.93896634 -30.85674459 -24.21397318 0 0 Z " fill="#E5A02C" transform="translate(164,20.4375)"/>
<path d="M0 0 C8.34413431 6.71158629 15.15396475 14.84701603 22.15625 22.90625 C24.40876457 25.46419027 26.70317092 27.9817898 29 30.5 C32.43264761 34.26350521 35.8155501 38.06129351 39.15625 41.90625 C41.40876457 44.46419027 43.70317092 46.9817898 46 49.5 C49.45328153 53.28662998 52.86099051 57.1047632 56.22265625 60.97265625 C58.29359487 63.33489173 60.39512848 65.66795853 62.5 68 C65.76390848 71.61676345 68.98790949 75.26389608 72.1875 78.9375 C74.27211164 81.30964429 76.38428644 83.65556065 78.5 86 C81.76390848 89.61676345 84.98790949 93.26389608 88.1875 96.9375 C90.27211164 99.30964429 92.38428644 101.65556065 94.5 104 C96.00014143 105.66653937 97.50014641 107.33320158 99 109 C99.66773438 109.73863281 100.33546875 110.47726563 101.0234375 111.23828125 C101.93996094 112.26501953 101.93996094 112.26501953 102.875 113.3125 C103.40867188 113.90675781 103.94234375 114.50101562 104.4921875 115.11328125 C106 117 106 117 109 122 C37.39 122 -34.22 122 -108 122 C-101.25545116 113.00726821 -101.25545116 113.00726821 -98.4921875 110.11328125 C-97.60080078 109.1706543 -97.60080078 109.1706543 -96.69140625 108.20898438 C-96.09199219 107.58314453 -95.49257812 106.95730469 -94.875 106.3125 C-93.66237156 105.03936886 -92.45139254 103.76466435 -91.2421875 102.48828125 C-90.7147998 101.93696533 -90.18741211 101.38564941 -89.64404297 100.81762695 C-87.86679167 98.99664756 -87.86679167 98.99664756 -86.60263062 96.421875 C-82.46616199 92.57268876 -78.16426784 93.3424025 -72.71386719 93.43237305 C-71.56236176 93.43164291 -70.41085632 93.43091278 -69.22445679 93.43016052 C-65.41478526 93.43364653 -61.6063332 93.47255889 -57.796875 93.51171875 C-55.15700956 93.52104318 -52.51713548 93.52816104 -49.8772583 93.53315735 C-43.63688762 93.54869314 -37.39695532 93.58971733 -31.15677762 93.6399048 C-24.05168256 93.69580707 -16.94656647 93.72328687 -9.84130621 93.74838197 C4.77269416 93.80063389 19.38632628 93.88957868 34 94 C34 89.38 34 84.76 34 80 C-0.32 80 -34.64 80 -70 80 C-67.07590781 75.61386172 -64.25952547 71.90242945 -60.6875 68.125 C-59.77370337 67.14940705 -58.86096183 66.17282488 -57.94921875 65.1953125 C-57.49315247 64.72316315 -57.03708618 64.25101379 -56.56719971 63.76455688 C-54.94757822 62.02249598 -54.94757822 62.02249598 -53.64312744 59.96542358 C-51.20106466 56.53242687 -49.35329441 54.33636042 -45.173172 53.2973938 C-41.70501158 53.07458674 -38.32100239 53.10029106 -34.84765625 53.21875 C-33.59238632 53.23006958 -32.33711639 53.24138916 -31.04380798 53.25305176 C-27.72605952 53.29013499 -24.41281548 53.36181119 -21.09631348 53.45068359 C-17.70457642 53.53292726 -14.31237133 53.56914408 -10.91992188 53.609375 C-4.27855482 53.69741249 2.36010706 53.83540333 9 54 C9 49.05 9 44.1 9 39 C-5.19 39 -19.38 39 -34 39 C-30.14162476 33.85549968 -26.44359204 29.12080005 -22.0625 24.5 C-21.00444126 23.36920683 -19.94714525 22.23769949 -18.890625 21.10546875 C-18.38982422 20.56970215 -17.88902344 20.03393555 -17.37304688 19.48193359 C-15.10369168 17.03261176 -12.9186733 14.51320033 -10.734375 11.98828125 C-7.20832935 7.94603522 -3.59635722 3.97964245 0 0 Z " fill="#D38518" transform="translate(108,144)"/>
<path d="M0 0 C0.80272842 0.0143811 1.60545685 0.02876221 2.43251038 0.0435791 C3.70600845 0.04270294 3.70600845 0.04270294 5.00523376 0.04180908 C7.8138455 0.04459771 10.62139832 0.07572603 13.42982483 0.10705566 C15.37609273 0.11451529 17.32236814 0.12020954 19.26864624 0.12420654 C24.39313974 0.13948476 29.5171803 0.1787855 34.64149475 0.22302246 C39.8697039 0.26392796 45.09798618 0.28220747 50.3263092 0.30236816 C60.58630593 0.3452777 70.84584749 0.41564551 81.10560608 0.49768066 C81.10560608 8.74768066 81.10560608 16.99768066 81.10560608 25.49768066 C112.78560608 25.82768066 144.46560608 26.15768066 177.10560608 26.49768066 C177.10560608 26.82768066 177.10560608 27.15768066 177.10560608 27.49768066 C109.12560608 27.49768066 41.14560608 27.49768066 -28.89439392 27.49768066 C-22.15016315 18.50537297 -22.15016315 18.50537297 -19.35142517 15.57580566 C-18.75265564 14.94287598 -18.15388611 14.30994629 -17.53697205 13.65783691 C-16.93304626 13.02748535 -16.32912048 12.39713379 -15.70689392 11.74768066 C-14.48242381 10.46294867 -13.25970777 9.17654213 -12.03892517 7.88830566 C-11.50630066 7.33175293 -10.97367615 6.7752002 -10.4249115 6.20178223 C-8.80924603 4.54660755 -8.80924603 4.54660755 -7.81916809 2.41955566 C-5.33227157 -0.063595 -3.41787445 0.02552956 0 0 Z " fill="#E8A72C" transform="translate(28.894393920898438,238.5023193359375)"/>
<path d="M0 0 C1.09989761 0.01131958 2.19979523 0.02263916 3.33302307 0.03430176 C6.82929257 0.07891245 10.32138691 0.1792548 13.81640625 0.28125 C16.19329994 0.3213964 18.57025824 0.35789512 20.94726562 0.390625 C26.76069524 0.47178981 32.56515709 0.6283125 38.37890625 0.78125 C38.37890625 9.03125 38.37890625 17.28125 38.37890625 25.78125 C49.26890625 25.78125 60.15890625 25.78125 71.37890625 25.78125 C71.37890625 26.11125 71.37890625 26.44125 71.37890625 26.78125 C36.72890625 26.78125 2.07890625 26.78125 -33.62109375 26.78125 C-30.69700156 22.39511172 -27.88061922 18.68367945 -24.30859375 14.90625 C-23.39479712 13.93065705 -22.48205558 12.95407488 -21.5703125 11.9765625 C-21.11622009 11.50441315 -20.66212769 11.03226379 -20.1942749 10.54580688 C-18.57099987 8.79703552 -18.57099987 8.79703552 -17.21038818 6.74667358 C-12.27840556 0.0010186 -8.03806342 -0.31382988 0 0 Z " fill="#E7A52D" transform="translate(71.62109375,197.21875)"/>
<path d="M0 0 C0.66 0.33 1.32 0.66 2 1 C2 13.21 2 25.42 2 38 C4.31 38 6.62 38 9 38 C9 38.33 9 38.66 9 39 C-5.19 39 -19.38 39 -34 39 C-30.14162476 33.85549968 -26.44359204 29.12080005 -22.0625 24.5 C-21.00444126 23.36920683 -19.94714525 22.23769949 -18.890625 21.10546875 C-18.38982422 20.56970215 -17.88902344 20.03393555 -17.37304688 19.48193359 C-15.10369168 17.03261176 -12.9186733 14.51320033 -10.734375 11.98828125 C-7.20832935 7.94603522 -3.59635722 3.97964245 0 0 Z " fill="#E8A52D" transform="translate(108,144)"/>
<path d="M0 0 C10.56 0 21.12 0 32 0 C32 0.33 32 0.66 32 1 C30.5459375 1.05607422 30.5459375 1.05607422 29.0625 1.11328125 C20.94943735 1.49096534 13.17004304 2.31603497 5.23046875 4.0715332 C1.85054371 4.79115533 -0.71548689 5.24413375 -4 4 C-3.01 3.34 -2.02 2.68 -1 2 C-0.67 1.34 -0.34 0.68 0 0 Z " fill="transparent" transform="translate(85,0)"/>
<path d="M0 0 C1.12341797 -0.03867188 1.12341797 -0.03867188 2.26953125 -0.078125 C4.73474479 0.34362233 5.61423573 1.36406807 7.1875 3.25 C4.0339199 4.26365075 2.34390781 4.04549144 -0.8125 3.25 C-2.4711512 3.10701869 -4.1335869 3.00458775 -5.796875 2.93359375 C-6.73144531 2.89169922 -7.66601562 2.84980469 -8.62890625 2.80664062 C-9.59699219 2.76732422 -10.56507812 2.72800781 -11.5625 2.6875 C-12.54605469 2.64431641 -13.52960938 2.60113281 -14.54296875 2.55664062 C-16.96601275 2.45077948 -19.3891554 2.34869829 -21.8125 2.25 C-21.8125 1.92 -21.8125 1.59 -21.8125 1.25 C-6.67757789 0.19844214 -6.67757789 0.19844214 0 0 Z " fill="transparent" transform="translate(122.8125,-0.25)"/>
<path d="M0 0 C3.67487425 3.2508503 6.06266026 7.0436512 8.6328125 11.171875 C9.08398438 11.77515625 9.53515625 12.3784375 10 13 C10.66 13 11.32 13 12 13 C12.33 15.31 12.66 17.62 13 20 C9.36428659 16.6811607 6.86067641 12.99935849 4.25 8.875 C3.83878906 8.24207031 3.42757812 7.60914063 3.00390625 6.95703125 C0 2.25656665 0 2.25656665 0 0 Z " fill="#EFBA2F" transform="translate(47,149)"/>
<path d="M0 0 C2.64 0 5.28 0 8 0 C6 2 6 2 3 3 C2.34 3.66 1.68 4.32 1 5 C0.67 3.35 0.34 1.7 0 0 Z " fill="transparent" transform="translate(110,198)"/>
</svg>
